<mxfile host="www.draw.io" modified="2020-01-07T07:43:16.952Z" agent="Mozilla/5.0 (Macintosh; Intel Mac OS X 10.15; rv:71.0) Gecko/20100101 Firefox/71.0" etag="bXDrq27uY8j_UuYvxOk0" version="12.4.9" type="github">
  <diagram id="rKG7iZBdfJ-Mdw3WDqiC" name="Page-1">
    <mxGraphModel dx="1186" dy="779" grid="1" gridSize="10" guides="1" tooltips="1" connect="1" arrows="1" fold="1" page="1" pageScale="1" pageWidth="850" pageHeight="1100" math="0" shadow="0">
      <root>
        <mxCell id="0"/>
        <mxCell id="1" parent="0"/>
        <mxCell id="_-3fZoGnlPK7tWUNnCv2-1" value="&lt;p style=&quot;margin: 0px ; margin-top: 4px ; text-align: center&quot;&gt;&lt;i&gt;&amp;lt;&amp;lt;Interface&amp;gt;&amp;gt;&lt;/i&gt;&lt;br&gt;&lt;b&gt;Subject&lt;/b&gt;&lt;/p&gt;&lt;hr size=&quot;1&quot;&gt;&lt;p style=&quot;margin: 0px ; margin-left: 4px&quot;&gt;&lt;br&gt;&lt;/p&gt;&lt;hr size=&quot;1&quot;&gt;&lt;p style=&quot;margin: 0px ; margin-left: 4px&quot;&gt;+ method1(Type): Type&lt;br&gt;&lt;/p&gt;" style="verticalAlign=top;align=left;overflow=fill;fontSize=12;fontFamily=Helvetica;html=1;" vertex="1" parent="1">
          <mxGeometry x="270" y="20" width="190" height="110" as="geometry"/>
        </mxCell>
        <mxCell id="_-3fZoGnlPK7tWUNnCv2-3" value="Proxy&#xa;" style="swimlane;fontStyle=1;align=center;verticalAlign=top;childLayout=stackLayout;horizontal=1;startSize=26;horizontalStack=0;resizeParent=1;resizeParentMax=0;resizeLast=0;collapsible=1;marginBottom=0;" vertex="1" parent="1">
          <mxGeometry x="90" y="180" width="160" height="86" as="geometry"/>
        </mxCell>
        <mxCell id="_-3fZoGnlPK7tWUNnCv2-4" value="+ realSubject: RealSubject" style="text;strokeColor=none;fillColor=none;align=left;verticalAlign=top;spacingLeft=4;spacingRight=4;overflow=hidden;rotatable=0;points=[[0,0.5],[1,0.5]];portConstraint=eastwest;" vertex="1" parent="_-3fZoGnlPK7tWUNnCv2-3">
          <mxGeometry y="26" width="160" height="26" as="geometry"/>
        </mxCell>
        <mxCell id="_-3fZoGnlPK7tWUNnCv2-5" value="" style="line;strokeWidth=1;fillColor=none;align=left;verticalAlign=middle;spacingTop=-1;spacingLeft=3;spacingRight=3;rotatable=0;labelPosition=right;points=[];portConstraint=eastwest;" vertex="1" parent="_-3fZoGnlPK7tWUNnCv2-3">
          <mxGeometry y="52" width="160" height="8" as="geometry"/>
        </mxCell>
        <mxCell id="_-3fZoGnlPK7tWUNnCv2-6" value="+ method1(type): type" style="text;strokeColor=none;fillColor=none;align=left;verticalAlign=top;spacingLeft=4;spacingRight=4;overflow=hidden;rotatable=0;points=[[0,0.5],[1,0.5]];portConstraint=eastwest;" vertex="1" parent="_-3fZoGnlPK7tWUNnCv2-3">
          <mxGeometry y="60" width="160" height="26" as="geometry"/>
        </mxCell>
        <mxCell id="_-3fZoGnlPK7tWUNnCv2-7" value="RealSubject" style="swimlane;fontStyle=1;align=center;verticalAlign=top;childLayout=stackLayout;horizontal=1;startSize=26;horizontalStack=0;resizeParent=1;resizeParentMax=0;resizeLast=0;collapsible=1;marginBottom=0;" vertex="1" parent="1">
          <mxGeometry x="460" y="190" width="160" height="86" as="geometry"/>
        </mxCell>
        <mxCell id="_-3fZoGnlPK7tWUNnCv2-8" value="+ field: type" style="text;strokeColor=none;fillColor=none;align=left;verticalAlign=top;spacingLeft=4;spacingRight=4;overflow=hidden;rotatable=0;points=[[0,0.5],[1,0.5]];portConstraint=eastwest;" vertex="1" parent="_-3fZoGnlPK7tWUNnCv2-7">
          <mxGeometry y="26" width="160" height="26" as="geometry"/>
        </mxCell>
        <mxCell id="_-3fZoGnlPK7tWUNnCv2-9" value="" style="line;strokeWidth=1;fillColor=none;align=left;verticalAlign=middle;spacingTop=-1;spacingLeft=3;spacingRight=3;rotatable=0;labelPosition=right;points=[];portConstraint=eastwest;" vertex="1" parent="_-3fZoGnlPK7tWUNnCv2-7">
          <mxGeometry y="52" width="160" height="8" as="geometry"/>
        </mxCell>
        <mxCell id="_-3fZoGnlPK7tWUNnCv2-10" value="+ method1(type): type" style="text;strokeColor=none;fillColor=none;align=left;verticalAlign=top;spacingLeft=4;spacingRight=4;overflow=hidden;rotatable=0;points=[[0,0.5],[1,0.5]];portConstraint=eastwest;" vertex="1" parent="_-3fZoGnlPK7tWUNnCv2-7">
          <mxGeometry y="60" width="160" height="26" as="geometry"/>
        </mxCell>
        <mxCell id="_-3fZoGnlPK7tWUNnCv2-11" value="" style="endArrow=block;dashed=1;endFill=0;endSize=12;html=1;" edge="1" parent="1" source="_-3fZoGnlPK7tWUNnCv2-3" target="_-3fZoGnlPK7tWUNnCv2-1">
          <mxGeometry width="160" relative="1" as="geometry">
            <mxPoint x="80" y="300" as="sourcePoint"/>
            <mxPoint x="240" y="300" as="targetPoint"/>
          </mxGeometry>
        </mxCell>
        <mxCell id="_-3fZoGnlPK7tWUNnCv2-13" value="" style="endArrow=block;dashed=1;endFill=0;endSize=12;html=1;entryX=0.632;entryY=1;entryDx=0;entryDy=0;entryPerimeter=0;" edge="1" parent="1" source="_-3fZoGnlPK7tWUNnCv2-7" target="_-3fZoGnlPK7tWUNnCv2-1">
          <mxGeometry width="160" relative="1" as="geometry">
            <mxPoint x="90" y="310" as="sourcePoint"/>
            <mxPoint x="250" y="310" as="targetPoint"/>
          </mxGeometry>
        </mxCell>
        <mxCell id="_-3fZoGnlPK7tWUNnCv2-14" value="" style="endArrow=diamondThin;endFill=0;endSize=24;html=1;entryX=1;entryY=0.962;entryDx=0;entryDy=0;entryPerimeter=0;" edge="1" parent="1" source="_-3fZoGnlPK7tWUNnCv2-8" target="_-3fZoGnlPK7tWUNnCv2-4">
          <mxGeometry width="160" relative="1" as="geometry">
            <mxPoint x="90" y="300" as="sourcePoint"/>
            <mxPoint x="250" y="300" as="targetPoint"/>
            <Array as="points"/>
          </mxGeometry>
        </mxCell>
      </root>
    </mxGraphModel>
  </diagram>
</mxfile>
